<?xml version="1.0" encoding="utf-8"?>
<!-- Generated by IcoMoon.io -->
<svg version="1.1" xmlns="http://www.w3.org/2000/svg" xmlns:xlink="http://www.w3.org/1999/xlink" width="752" height="32" viewBox="0 0 752 32">
    <svg id="icon-envelop" width="32" height="32" viewBox="0 0 32 32" x="0" y="0">
        <path d="M29 4h-26c-1.65 0-3 1.35-3 3v20c0 1.65 1.35 3 3 3h26c1.65 0 3-1.35 3-3v-20c0-1.65-1.35-3-3-3zM12.461 17.199l-8.461 6.59v-15.676l8.461 9.086zM5.512 8h20.976l-10.488 7.875-10.488-7.875zM12.79 17.553l3.21 3.447 3.21-3.447 6.58 8.447h-19.579l6.58-8.447zM19.539 17.199l8.461-9.086v15.676l-8.461-6.59z"></path>
    </svg>
    <svg id="icon-bell" width="20" height="20" viewBox="0 0 32 32" x="0" y="0">
        <path d="M32.047 25c0-9-8-7-8-14 0-0.58-0.056-1.076-0.158-1.498-0.526-3.532-2.88-6.366-5.93-7.23 0.027-0.123 0.041-0.251 0.041-0.382 0-1.040-0.9-1.891-2-1.891s-2 0.851-2 1.891c0 0.131 0.014 0.258 0.041 0.382-3.421 0.969-5.966 4.416-6.039 8.545-0.001 0.060-0.002 0.121-0.002 0.183 0 7-8 5-8 14 0 2.382 5.331 4.375 12.468 4.878 0.673 1.263 2.002 2.122 3.532 2.122s2.86-0.86 3.532-2.122c7.137-0.503 12.468-2.495 12.468-4.878 0-0.007-0.001-0.014-0.001-0.021l0.048 0.021zM25.82 26.691c-1.695 0.452-3.692 0.777-5.837 0.958-0.178-2.044-1.893-3.648-3.984-3.648s-3.805 1.604-3.984 3.648c-2.144-0.18-4.142-0.506-5.837-0.958-2.332-0.622-3.447-1.318-3.855-1.691 0.408-0.372 1.523-1.068 3.855-1.691 2.712-0.724 6.199-1.122 9.82-1.122s7.109 0.398 9.82 1.122c2.332 0.622 3.447 1.318 3.855 1.691-0.408 0.372-1.523 1.068-3.855 1.691z"></path>
    </svg>
    <svg id="icon-calendar" width="20" height="20" viewBox="0 0 32 32" x="0" y="0">
        <path d="M10 12h4v4h-4zM16 12h4v4h-4zM22 12h4v4h-4zM4 24h4v4h-4zM10 24h4v4h-4zM16 24h4v4h-4zM10 18h4v4h-4zM16 18h4v4h-4zM22 18h4v4h-4zM4 18h4v4h-4zM26 0v2h-4v-2h-14v2h-4v-2h-4v32h30v-32h-4zM28 30h-26v-22h26v22z"></path>
    </svg>
    <svg id="icon-user" width="24" height="24" viewBox="0 0 32 32" x="0" y="0">
        <path d="M18 22.082v-1.649c2.203-1.241 4-4.337 4-7.432 0-4.971 0-9-6-9s-6 4.029-6 9c0 3.096 1.797 6.191 4 7.432v1.649c-6.784 0.555-12 3.888-12 7.918h28c0-4.030-5.216-7.364-12-7.918z"></path>
    </svg>
    <svg id="icon-enlarge" width="24" height="24" viewBox="0 0 32 32" x="0" y="0">
        <path d="M32 0h-13l5 5-6 6 3 3 6-6 5 5z"></path>
        <path d="M32 32v-13l-5 5-6-6-3 3 6 6-5 5z"></path>
        <path d="M0 32h13l-5-5 6-6-3-3-6 6-5-5z"></path>
        <path d="M0 0v13l5-5 6 6 3-3-6-6 5-5z"></path>
    </svg>
    <svg id="icon-airplane" width="20" height="20" viewBox="0 0 32 32" x="0" y="0">
        <path d="M24 19.999l-5.713-5.713 13.713-10.286-4-4-17.141 6.858-5.397-5.397c-1.556-1.556-3.728-1.928-4.828-0.828s-0.727 3.273 0.828 4.828l5.396 5.396-6.858 17.143 4 4 10.287-13.715 5.713 5.713v7.999h4l2-6 6-2v-4l-7.999 0z"></path>
    </svg>
    <svg id="icon-switch" width="24" height="24" viewBox="0 0 32 32" x="0" y="0">
        <path d="M20 4.581v4.249c1.131 0.494 2.172 1.2 3.071 2.099 1.889 1.889 2.929 4.4 2.929 7.071s-1.040 5.182-2.929 7.071c-1.889 1.889-4.4 2.929-7.071 2.929s-5.182-1.040-7.071-2.929c-1.889-1.889-2.929-4.4-2.929-7.071s1.040-5.182 2.929-7.071c0.899-0.899 1.94-1.606 3.071-2.099v-4.249c-5.783 1.721-10 7.077-10 13.419 0 7.732 6.268 14 14 14s14-6.268 14-14c0-6.342-4.217-11.698-10-13.419zM14 0h4v16h-4z"></path>
    </svg>
    <svg id="icon-cog" width="24" height="24" viewBox="0 0 32 32" x="0" y="0">
        <path d="M29.181 19.070c-1.679-2.908-0.669-6.634 2.255-8.328l-3.145-5.447c-0.898 0.527-1.943 0.829-3.058 0.829-3.361 0-6.085-2.742-6.085-6.125h-6.289c0.008 1.044-0.252 2.103-0.811 3.070-1.679 2.908-5.411 3.897-8.339 2.211l-3.144 5.447c0.905 0.515 1.689 1.268 2.246 2.234 1.676 2.903 0.672 6.623-2.241 8.319l3.145 5.447c0.895-0.522 1.935-0.82 3.044-0.82 3.35 0 6.067 2.725 6.084 6.092h6.289c-0.003-1.034 0.259-2.080 0.811-3.038 1.676-2.903 5.399-3.894 8.325-2.219l3.145-5.447c-0.899-0.515-1.678-1.266-2.232-2.226zM16 22.479c-3.578 0-6.479-2.901-6.479-6.479s2.901-6.479 6.479-6.479c3.578 0 6.479 2.901 6.479 6.479s-2.901 6.479-6.479 6.479z"></path>
    </svg>
    <svg id="icon-home3" viewBox="0 0 32 32" width="24" height="24" x="0" y="0">
        <path d="M32 19l-6-6v-9h-4v5l-6-6-16 16v1h4v10h10v-6h4v6h10v-10h4z"></path>
    </svg>
    <svg id="icon-times" viewBox="0 0 24 24" x="0" y="0">
        <path d="M17.414 6.586c-0.78-0.781-2.048-0.781-2.828 0l-2.586 2.586-2.586-2.586c-0.78-0.781-2.048-0.781-2.828 0-0.781 0.781-0.781 2.047 0 2.828l2.585 2.586-2.585 2.586c-0.781 0.781-0.781 2.047 0 2.828 0.39 0.391 0.902 0.586 1.414 0.586s1.024-0.195 1.414-0.586l2.586-2.586 2.586 2.586c0.39 0.391 0.902 0.586 1.414 0.586s1.024-0.195 1.414-0.586c0.781-0.781 0.781-2.047 0-2.828l-2.585-2.586 2.585-2.586c0.781-0.781 0.781-2.047 0-2.828z"></path>
    </svg>
    <svg id="icon-check_circle_outline" viewBox="0 0 24 24" x="0" y="0">
        <path d="M12 20.016q3.281 0 5.648-2.367t2.367-5.648-2.367-5.648-5.648-2.367-5.648 2.367-2.367 5.648 2.367 5.648 5.648 2.367zM12 2.016q4.125 0 7.055 2.93t2.93 7.055-2.93 7.055-7.055 2.93-7.055-2.93-2.93-7.055 2.93-7.055 7.055-2.93zM16.594 7.594l1.406 1.406-8.016 8.016-4.969-5.016 1.406-1.406 3.563 3.563z"></path>
    </svg>
    <svg id="icon-dangerous" viewBox="0 0 24 24" x="0" y="0">
        <path d="M17.016 15.75l-3.75-3.75 3.75-3.75-1.266-1.266-3.75 3.75-3.75-3.75-1.266 1.266 3.75 3.75-3.75 3.75 1.266 1.266 3.75-3.75 3.75 3.75zM15.75 3l5.25 5.25v7.5l-5.25 5.25h-7.5l-5.25-5.25v-7.5l5.25-5.25h7.5z"></path>
    </svg>
    <svg id="icon-key-outline" viewBox="0 0 24 24" x="0" y="0">
        <path d="M10 21h-6v-4.414l3.783-3.783c-0.187-0.587-0.283-1.192-0.283-1.803 0-3.309 2.691-6 6-6s6 2.691 6 6-2.691 6-6 6h-1.5v2h-2v2zM6 19h2v-2h2v-2h3.5c2.206 0 4-1.794 4-4s-1.794-4-4-4-4 1.794-4 4c0 0.559 0.121 1.109 0.359 1.639l0.285 0.631-4.144 4.144v1.586z"></path>
        <path d="M13.5 9.998c0.551 0 1 0.449 1 1.002 0 0.552-0.449 1-1 1s-1-0.448-1-1c0-0.553 0.449-1.002 1-1.002M13.5 8.998c-1.104 0-2 0.896-2 2.002 0 1.104 0.896 2 2 2 1.105 0 2-0.896 2-2 0-1.105-0.895-2.002-2-2.002z"></path>
    </svg>
</svg>
