<svg xmlns="http://www.w3.org/2000/svg"  id="Layer_3" enable-background="new 0 0 64 64" width="176" height="144" viewBox="0 0 64 64"><path d="m32 24c-4.418 0-8 3.582-8 8s3.582 8 8 8 8-3.582 8-8-3.582-8-8-8zm0 12c-2.209 0-4-1.791-4-4s1.791-4 4-4 4 1.791 4 4-1.791 4-4 4z" fill="#4d5d7a"/><path d="m32 2c-16.569 0-30 13.431-30 30s13.431 30 30 30 30-13.431 30-30-13.431-30-30-30zm0 46c-8.837 0-16-7.163-16-16s7.163-16 16-16 16 7.163 16 16-7.163 16-16 16z" fill="#4d5d7a"/><g fill="#8892a0"><path d="m39.954 60.926-7.954-12.926c-4.328 0-8.248-1.726-11.129-4.518l-3.866 14.498c4.413 2.552 9.531 4.02 14.995 4.02 2.755 0 5.42-.379 7.954-1.074z"/><path d="m24.046 3.074 7.954 12.926c4.328 0 8.248 1.726 11.129 4.518l3.866-14.498c-4.413-2.552-9.531-4.02-14.995-4.02-2.755 0-5.42.379-7.954 1.074z"/><path d="m62 32c0-2.755-.379-5.42-1.074-7.954l-12.926 7.954c0 4.328-1.726 8.248-4.518 11.129l14.498 3.866c2.552-4.413 4.02-9.531 4.02-14.995z"/><path d="m20.518 20.871-14.498-3.866c-2.552 4.413-4.02 9.531-4.02 14.995 0 2.755.379 5.42 1.074 7.954l12.926-7.954c0-4.328 1.726-8.248 4.518-11.129z"/></g><path d="m32 63c-17.094 0-31-13.906-31-31s13.906-31 31-31 31 13.906 31 31-13.906 31-31 31zm0-60c-15.99 0-29 13.01-29 29s13.01 29 29 29 29-13.01 29-29-13.01-29-29-29z"/><path d="m32 49c-9.374 0-17-7.626-17-17s7.626-17 17-17 17 7.626 17 17-7.626 17-17 17zm0-32c-8.271 0-15 6.729-15 15s6.729 15 15 15 15-6.729 15-15-6.729-15-15-15z"/><path d="m32 41c-4.963 0-9-4.037-9-9s4.037-9 9-9 9 4.037 9 9-4.037 9-9 9zm0-16c-3.859 0-7 3.141-7 7s3.141 7 7 7 7-3.141 7-7-3.141-7-7-7z"/><path d="m32 37c-2.757 0-5-2.243-5-5s2.243-5 5-5 5 2.243 5 5-2.243 5-5 5zm0-8c-1.654 0-3 1.346-3 3s1.346 3 3 3 3-1.346 3-3-1.346-3-3-3z"/><path d="m27 1.868h2v15.264h-2z" transform="matrix(.852 -.524 .524 .852 -.825 16.084)"/><path d="m35 46.868h2v15.264h-2z" transform="matrix(.852 -.524 .524 .852 -23.223 26.952)"/><path d="m1.868 35h15.264v2h-15.264z" transform="matrix(.852 -.524 .524 .852 -17.467 10.328)"/><path d="m46.868 27h15.264v2h-15.264z" transform="matrix(.852 -.524 .524 .852 -6.589 32.736)"/><path d="m11.238 49.5h15.524v1.999h-15.524z" transform="matrix(.258 -.966 .966 .258 -34.692 55.833)"/><path d="m37.238 12.5h15.524v1.999h-15.524z" transform="matrix(.258 -.966 .966 .258 20.351 53.496)"/><path d="m49.5 37.238h1.999v15.524h-1.999z" transform="matrix(.258 -.966 .966 .258 -5.993 82.2)"/><path d="m12.5 11.238h1.999v15.524h-1.999z" transform="matrix(.258 -.966 .966 .258 -8.337 27.149)"/><path d="m31 43h2v2h-2z"/><path d="m31 19h2v2h-2z"/><path d="m19 31h2v2h-2z"/><path d="m43 31h2v2h-2z"/></svg>