<?xml version="1.0" encoding="iso-8859-1"?>
<!-- Generator: Adobe Illustrator 19.0.0, SVG Export Plug-In . SVG Version: 6.00 Build 0)  -->
<svg version="1.1" id="Capa_1" xmlns="http://www.w3.org/2000/svg" xmlns:xlink="http://www.w3.org/1999/xlink" x="0px" y="0px"
	 viewBox="0 0 496 496" style="enable-background:new 0 0 496 496;" xml:space="preserve">
<rect x="104" y="104" style="fill:#FFA64D;" width="176" height="144"/>
<g>
	<path style="fill:#333333;" d="M153.872,320h76.256L192,256.456L153.872,320z M182.128,304L192,287.544L201.872,304H182.128z"/>
	<path style="fill:#333333;" d="M192,463.544L230.128,400h-76.256L192,463.544z M192,432.456L182.128,416h19.744L192,432.456z"/>
	<path style="fill:#333333;" d="M152,398.136v-76.264L88.448,360L152,398.136z M136,369.864L119.552,360L136,350.136V369.864z"/>
	<path style="fill:#333333;" d="M232,398.136L295.552,360L232,321.864V398.136z M248,350.136L264.448,360L248,369.864V350.136z"/>
	<rect x="240" y="208" style="fill:#333333;" width="16" height="16"/>
	<rect x="128" y="208" style="fill:#333333;" width="96" height="16"/>
	<rect x="128" y="176" style="fill:#333333;" width="128" height="16"/>
	<path style="fill:#333333;" d="M432,64h-64v96h24v44c0,11.032-8.976,20-20,20s-20-8.968-20-20V36c0-19.848-16.152-36-36-36h-96
		c-19.848,0-36,16.152-36,36v28h-80c-22.056,0-40,17.944-40,40v158.856c0,0.944,0.032,1.904,0.104,2.848l13.8,193.144
		C79.384,479.68,96.912,496,117.8,496h148.408c20.888,0,38.408-16.32,39.896-37.152l13.8-193.136
		c0.064-0.944,0.096-1.904,0.096-2.856V104c0-22.056-17.944-40-40-40h-80V36c0-11.032,8.976-20,20-20h96c11.024,0,20,8.968,20,20
		v168c0,19.848,16.152,36,36,36s36-16.152,36-36v-44h24V64z M304,104v158.856c0,0.568-0.016,1.144-0.064,1.712l-13.8,193.144
		C289.248,470.208,278.736,480,266.2,480H117.8c-12.528,0-23.048-9.792-23.936-22.288l-13.8-193.152
		C80.016,264,80,263.432,80,262.856V104c0-13.232,10.768-24,24-24h176C293.232,80,304,90.768,304,104z M416,144h-32V80h32V144z"/>
</g>
<rect x="384" y="96" style="fill:#FFA64D;" width="32" height="16"/>
<g>
</g>
<g>
</g>
<g>
</g>
<g>
</g>
<g>
</g>
<g>
</g>
<g>
</g>
<g>
</g>
<g>
</g>
<g>
</g>
<g>
</g>
<g>
</g>
<g>
</g>
<g>
</g>
<g>
</g>
</svg>
