<svg xmlns="http://www.w3.org/2000/svg" id="Layer_1_copy" width="176" height="144" viewBox="0 0 64 64" data-name="Layer 1 copy"><path d="m1 45v-11-9-20h62v40z" fill="#23a8cc"/><path d="m14 23h6v14h-6z" fill="#efc925"/><path d="m24 21h6v16h-6z" fill="#6a951f"/><path d="m34 18h6v19h-6z" fill="#efc925"/><path d="m44 14h6v23h-6z" fill="#6a951f"/><g opacity=".2"><path d="m1 13.717c8.465 5.466 28.112 15.062 62 15.4v-24.117h-62z" fill="#fff"/></g><g fill="#043c49"><path d="m21 38h-8v-16h8zm-6-2h4v-12h-4z"/><path d="m31 38h-8v-18h8zm-6-2h4v-14h-4z"/><path d="m41 38h-8v-21h8zm-6-2h4v-17h-4z"/><path d="m51 38h-8v-25h8zm-6-2h4v-21h-4z"/><path d="m55 44h-53v-10a1 1 0 0 0 -2 0v11a1 1 0 0 0 1 1h30v6.586l-9.707 9.707a1 1 0 0 0 1.414 1.414l8.293-8.293v7.586a1 1 0 0 0 2 0v-7.586l8.293 8.293a1 1 0 0 0 1.414-1.414l-9.707-9.707v-6.586h22a1 1 0 0 0 0-2z"/><path d="m63 4h-30v-3a1 1 0 0 0 -2 0v3h-30a1 1 0 0 0 -1 1v20a1 1 0 0 0 2 0v-19h60v38h-3a1 1 0 0 0 0 2h4a1 1 0 0 0 1-1v-40a1 1 0 0 0 -1-1z"/><path d="m10 42a1 1 0 0 0 0-2h-1a1 1 0 0 0 0 2z"/><path d="m14 42a1 1 0 0 0 0-2h-1a1 1 0 0 0 0 2z"/><path d="m6 42a1 1 0 0 0 0-2h-1a1 1 0 0 0 0 2z"/><path d="m55 10a1 1 0 0 0 0-2h-1a1 1 0 0 0 0 2z"/><path d="m59 10a1 1 0 0 0 0-2h-1a1 1 0 0 0 0 2z"/><path d="m51 10a1 1 0 0 0 0-2h-1a1 1 0 0 0 0 2z"/><path d="m1 31a1 1 0 0 0 1-1v-1a1 1 0 0 0 -2 0v1a1 1 0 0 0 1 1z"/></g></svg>